<?xml version="1.0" standalone="no"?><!DOCTYPE svg PUBLIC "-//W3C//DTD SVG 1.1//EN" "http://www.w3.org/Graphics/SVG/1.1/DTD/svg11.dtd"><svg t="1606113719809" class="icon" viewBox="0 0 1024 1024" version="1.1" xmlns="http://www.w3.org/2000/svg" p-id="6052" xmlns:xlink="http://www.w3.org/1999/xlink" width="200" height="200"><defs><style type="text/css"></style></defs><path d="M1015.056316 587.459717l-245.585013 349.626235a43.298422 43.298422 0 0 1-23.410695 16.364758l-128.645181 44.264398a46.082704 46.082704 0 0 1-13.807765 2.159239c-23.978916 0-47.048679-19.14904-47.048679-46.423637l-2.272883-132.963658c0-9.318821 4.602588-20.910524 9.318821-27.956462l245.585013-349.626235a46.309992 46.309992 0 0 1 38.58219-19.660438c9.375643 0 18.808107 2.670638 27.047308 8.068735l128.588359 90.915322c21.024168 16.307936 25.797223 44.321219 11.648525 65.231743z m-160.010966-76.198404l-223.651692 318.544559 1.420552 81.596502 80.289593-27.672351 221.890208-315.930744-79.948661-56.537966z m-315.873922 28.18375c4.716232 2.159239 9.318821 4.488944 13.807765 6.761827a38.241257 38.241257 0 1 1-35.456976 67.959203 287.008307 287.008307 0 0 0-131.713573-31.308964c-75.971116 0-143.873497 26.422265-196.661206 76.255226a319.340068 319.340068 0 0 0-64.720344 87.960574 398.20911 398.20911 0 0 0-36.65024 114.951061l-5.227631 41.707404a38.354901 38.354901 0 0 0 38.184436 43.071133h301.838869c1.420552 0 2.784282 0.113644 4.091189 0.227289A38.354901 38.354901 0 1 1 430.754907 1023.398686c-1.420552 0-2.670638-0.113644-4.09119-0.227288-1.420552 0.113644-2.670638 0.227288-4.091189 0.227288H77.151126a76.709803 76.709803 0 0 1-76.198404-86.19909l10.853016-86.199089c22.956119-143.646209 103.132068-258.426803 219.844613-312.066843a290.531276 290.531276 0 0 1-137.850357-247.176031C93.799994 130.951157 224.604414 0.601314 385.922288 0.601314s292.122294 130.349843 292.122294 291.156319a290.531276 290.531276 0 0 1-138.873154 247.68743z m-1.079619-399.402374a214.219227 214.219227 0 0 0-152.169521-62.845216 214.219227 214.219227 0 0 0-152.16952 62.845216 212.798675 212.798675 0 0 0-63.072504 151.714944c0 57.333475 22.44472 111.200803 63.072504 151.658121a213.991939 213.991939 0 0 0 152.16952 62.845216 213.991939 213.991939 0 0 0 152.169521-62.845216 212.685031 212.685031 0 0 0 63.072504-151.658121 212.798675 212.798675 0 0 0-63.072504-151.714944z" p-id="6053"></path></svg>