<?xml version="1.0" standalone="no"?><!DOCTYPE svg PUBLIC "-//W3C//DTD SVG 1.1//EN" "http://www.w3.org/Graphics/SVG/1.1/DTD/svg11.dtd"><svg t="1606113460913" class="icon" viewBox="0 0 1024 1024" version="1.1" xmlns="http://www.w3.org/2000/svg" p-id="2743" xmlns:xlink="http://www.w3.org/1999/xlink" width="200" height="200"><defs><style type="text/css"></style></defs><path d="M900.60420741 211.74802963H124.00260741c-42.71976297 0-77.6722963-34.95253333-77.6722963-77.6722963s34.95253333-77.6722963 77.6722963-77.6722963h776.48023704c42.71976297 0 77.6722963 34.95253333 77.6722963 77.6722963 0.12136297 42.71976297-34.83117037 77.6722963-77.55093334 77.6722963zM900.60420741 591.97819259H128.6144c-42.71976297 0-77.6722963-34.95253333-77.6722963-77.67229629s34.95253333-77.6722963 77.6722963-77.6722963h771.98980741c42.71976297 0 77.6722963 34.95253333 77.67229629 77.6722963s-34.95253333 77.6722963-77.67229629 77.67229629zM900.60420741 979.12604445H124.00260741c-42.71976297 0-77.6722963-34.95253333-77.6722963-77.6722963s34.95253333-77.6722963 77.6722963-77.6722963h776.48023704c42.71976297 0 77.6722963 34.95253333 77.6722963 77.6722963 0.12136297 42.71976297-34.83117037 77.6722963-77.55093334 77.6722963z" fill="#666666" p-id="2744"></path></svg>